<?xml version="1.0" encoding="UTF-8" standalone="no"?>
<!DOCTYPE svg PUBLIC "-//W3C//DTD SVG 1.1//EN" "http://www.w3.org/Graphics/SVG/1.1/DTD/svg11.dtd">
<svg width="100%" height="100%" viewBox="0 0 860 566" version="1.1" xmlns="http://www.w3.org/2000/svg" xmlns:xlink="http://www.w3.org/1999/xlink" xml:space="preserve" xmlns:serif="http://www.serif.com/" style="fill-rule:evenodd;clip-rule:evenodd;stroke-linejoin:round;stroke-miterlimit:2;">
    <g transform="matrix(-4.16667,0,0,4.16667,1006.31,-1075.76)">
        <rect x="35.126" y="258.183" width="206.389" height="135.643" style="fill:rgb(35,31,32);"/>
    </g>
    <g transform="matrix(4.16667,0,0,4.16667,265.245,265.921)">
        <path d="M0,0.31C0,-8.579 5.876,-13.734 12.647,-13.734C16.11,-13.734 18.901,-12.104 20.705,-10.256L17.512,-6.372C16.167,-7.625 14.722,-8.504 12.783,-8.504C9.108,-8.504 6.207,-5.265 6.207,0.107C6.207,5.614 8.77,8.815 12.686,8.815C14.886,8.815 16.617,7.731 17.927,6.31L21.121,10.113C18.896,12.7 15.936,14.044 12.468,14.044C5.673,14.044 0,9.334 0,0.31" style="fill:white;fill-rule:nonzero;"/>
    </g>
    <g transform="matrix(4.16667,0,0,4.16667,-146.358,-1107.81)">
        <rect x="123.974" y="316.454" width="6.058" height="26.792" style="fill:white;"/>
    </g>
    <g transform="matrix(4.16667,0,0,4.16667,443.593,301.218)">
        <path d="M0,-16.632L-7.375,-16.632L-7.375,-21.712L13.432,-21.712L13.432,-16.632L6.057,-16.632L6.057,5.08L0,5.08L0,-16.632Z" style="fill:white;fill-rule:nonzero;"/>
    </g>
    <g transform="matrix(4.16667,0,0,4.16667,538.2,250.569)">
        <path d="M0,7.68L-8.071,-9.556L-1.593,-9.556L0.8,-3.401C1.515,-1.394 2.216,0.463 2.98,2.537L3.145,2.537C3.909,0.463 4.673,-1.394 5.408,-3.401L7.801,-9.556L14.129,-9.556L6.057,7.68L6.057,17.236L0,17.236L0,7.68Z" style="fill:white;fill-rule:nonzero;"/>
    </g>
    <g transform="matrix(4.16667,0,0,4.16667,263.31,360.48)">
        <path d="M0,20.032L3.479,15.876C5.384,17.534 7.855,18.676 10.06,18.676C12.588,18.676 13.825,17.679 13.825,16.09C13.825,14.403 12.302,13.861 9.962,12.899L6.48,11.415C3.704,10.285 1.073,8.005 1.073,4.112C1.073,-0.328 5.04,-3.873 10.616,-3.873C13.702,-3.873 16.928,-2.657 19.235,-0.363L16.177,3.455C14.412,2.101 12.734,1.356 10.616,1.356C8.528,1.356 7.198,2.226 7.198,3.759C7.198,5.402 8.951,5.999 11.29,6.929L14.704,8.313C17.975,9.636 20.018,11.814 20.018,15.601C20.018,20.051 16.309,23.905 9.924,23.905C6.437,23.905 2.733,22.585 0,20.032" style="fill:white;fill-rule:nonzero;"/>
    </g>
    <g transform="matrix(4.16667,0,0,4.16667,384.168,436.862)">
        <path d="M0,-16.632L-7.375,-16.632L-7.375,-21.712L13.432,-21.712L13.432,-16.632L6.057,-16.632L6.057,5.08L0,5.08L0,-16.632Z" style="fill:white;fill-rule:nonzero;"/>
    </g>
    <g transform="matrix(4.16667,0,0,4.16667,523.018,402.697)">
        <path d="M0,-0.232C0,-5.604 -2.306,-8.776 -5.961,-8.776C-9.616,-8.776 -11.922,-5.604 -11.922,-0.232C-11.922,5.139 -9.616,8.543 -5.961,8.543C-2.306,8.543 0,5.139 0,-0.232M-18.129,-0.232C-18.129,-8.986 -13.187,-14.005 -5.961,-14.005C1.265,-14.005 6.207,-8.952 6.207,-0.232C6.207,8.521 1.265,13.773 -5.961,13.773C-13.187,13.773 -18.129,8.521 -18.129,-0.232" style="fill:white;fill-rule:nonzero;"/>
    </g>
    <g transform="matrix(4.16667,0,0,4.16667,595.143,437.99)">
        <path d="M0,-17.174L3.099,-17.174C6.285,-17.174 7.996,-16.289 7.996,-13.64C7.996,-11.005 6.285,-9.641 3.099,-9.641L0,-9.641L0,-17.174ZM15.224,4.809L9.16,-5.91C12.021,-7.203 13.932,-9.7 13.932,-13.64C13.932,-20.01 9.274,-21.983 3.592,-21.983L-6.057,-21.983L-6.057,4.809L0,4.809L0,-4.832L3.331,-4.832L8.446,4.809L15.224,4.809Z" style="fill:white;fill-rule:nonzero;"/>
    </g>
    <g transform="matrix(4.16667,0,0,4.16667,691.488,386.214)">
        <path d="M0,7.68L-8.071,-9.556L-1.593,-9.556L0.8,-3.401C1.515,-1.394 2.216,0.463 2.98,2.537L3.145,2.537C3.909,0.463 4.673,-1.394 5.408,-3.401L7.801,-9.556L14.129,-9.556L6.057,7.68L6.057,17.236L0,17.236L0,7.68Z" style="fill:white;fill-rule:nonzero;"/>
    </g>
    <g transform="matrix(4.16667,0,0,4.16667,-146.358,-840.758)">
        <rect x="60.641" y="285.046" width="25.515" height="25.516" style="fill:white;"/>
    </g>
    <g transform="matrix(4.16667,0,0,4.16667,212.626,335.671)">
        <path d="M0,-25.515L0,0L-25.515,-25.515L0,-25.515Z" style="fill:white;fill-rule:nonzero;"/>
    </g>
    <g transform="matrix(0,-4.16667,-4.16667,0,159.47,109.697)">
        <path d="M-12.758,-12.758C-19.804,-12.758 -25.516,-7.047 -25.516,-0.001C-25.516,7.046 -19.804,12.758 -12.758,12.758C-5.712,12.758 0,7.046 0,-0.001C0,-7.047 -5.712,-12.758 -12.758,-12.758" style="fill:white;fill-rule:nonzero;"/>
    </g>
</svg>
